<?xml version="1.0" standalone="no"?><svg xmlns="http://www.w3.org/2000/svg" viewBox="0 0 1440 320"><path fill="#c476df" fill-opacity="1" d="M0,128L34.3,128C68.6,128,137,128,206,144C274.3,160,343,192,411,202.7C480,213,549,203,617,186.7C685.7,171,754,149,823,133.3C891.4,117,960,107,1029,112C1097.1,117,1166,139,1234,154.7C1302.9,171,1371,181,1406,186.7L1440,192L1440,320L1405.7,320C1371.4,320,1303,320,1234,320C1165.7,320,1097,320,1029,320C960,320,891,320,823,320C754.3,320,686,320,617,320C548.6,320,480,320,411,320C342.9,320,274,320,206,320C137.1,320,69,320,34,320L0,320Z"></path></svg>